<?xml version="1.0" encoding="UTF-8" standalone="no"?>
<svg
   xmlns:dc="http://purl.org/dc/elements/1.1/"
   xmlns:cc="http://creativecommons.org/ns#"
   xmlns:rdf="http://www.w3.org/1999/02/22-rdf-syntax-ns#"
   xmlns:svg="http://www.w3.org/2000/svg"
   xmlns="http://www.w3.org/2000/svg"
   xmlns:sodipodi="http://sodipodi.sourceforge.net/DTD/sodipodi-0.dtd"
   xmlns:inkscape="http://www.inkscape.org/namespaces/inkscape"
   version="1.1"
   id="Layer_1"
   x="0px"
   y="0px"
   width="300px"
   height="400px"
   viewBox="0 0 300 400"
   style=""
   xml:space="preserve"
   inkscape:version="0.47 r22583"
   sodipodi:docname="Java_Logo_Blanco.svg"
   inkscape:export-filename="/home/adolfo/Escritorio/curso-java/imagenes/Java_Logo_Blanco.png"
   inkscape:export-xdpi="90"
   inkscape:export-ydpi="90"><metadata
   id="metadata23"><rdf:RDF><cc:Work
       rdf:about=""><dc:format>image/svg+xml</dc:format><dc:type
         rdf:resource="http://purl.org/dc/dcmitype/StillImage" /><dc:title></dc:title></cc:Work></rdf:RDF></metadata><defs
   id="defs21"><inkscape:perspective
     sodipodi:type="inkscape:persp3d"
     inkscape:vp_x="0 : 200 : 1"
     inkscape:vp_y="0 : 1000 : 0"
     inkscape:vp_z="300 : 200 : 1"
     inkscape:persp3d-origin="150 : 133.33333 : 1"
     id="perspective25" /></defs><sodipodi:namedview
   pagecolor="#ffffff"
   bordercolor="#666666"
   borderopacity="1"
   objecttolerance="10"
   gridtolerance="10"
   guidetolerance="10"
   inkscape:pageopacity="0"
   inkscape:pageshadow="2"
   inkscape:window-width="1366"
   inkscape:window-height="693"
   id="namedview19"
   showgrid="false"
   inkscape:zoom="0.834386"
   inkscape:cx="631.72948"
   inkscape:cy="239.82525"
   inkscape:window-x="0"
   inkscape:window-y="24"
   inkscape:window-maximized="1"
   inkscape:current-layer="Layer_1" />
<path
   style="fill: rgb(83, 130, 161);"
   d="M102.681,291.324c0,0-14.178,8.245,10.09,11.035c29.4,3.354,44.426,2.873,76.825-3.259  c0,0,8.518,5.341,20.414,9.967C137.38,340.195,45.634,307.264,102.681,291.324"
   id="path3" />
<path
   style="fill: rgb(83, 130, 161);"
   d="M93.806,250.704c0,0-15.902,11.771,8.384,14.283c31.406,3.24,56.208,3.505,99.125-4.759  c0,0,5.936,6.018,15.27,9.309C128.771,295.215,30.962,271.562,93.806,250.704"
   id="path5" />
<path
   style="fill: rgb(231, 111, 0);"
   d="M168.625,181.799c17.896,20.604-4.702,39.145-4.702,39.145s45.441-23.458,24.572-52.833  c-19.491-27.394-34.438-41.005,46.479-87.934C234.974,80.177,107.961,111.899,168.625,181.799"
   id="path7" />
<path
   style="fill: rgb(83, 130, 161);"
   d="M264.684,321.369c0,0,10.492,8.645-11.555,15.333c-41.923,12.7-174.488,16.535-211.314,0.506  c-13.238-5.759,11.587-13.751,19.396-15.428c8.144-1.766,12.798-1.437,12.798-1.437c-14.722-10.371-95.157,20.364-40.857,29.166  C181.236,373.524,303.095,338.695,264.684,321.369"
   id="path9" />
<path
   style="fill: rgb(83, 130, 161);"
   d="M109.499,208.617c0,0-67.431,16.016-23.879,21.832c18.389,2.462,55.047,1.905,89.193-0.956  c27.906-2.354,55.927-7.359,55.927-7.359s-9.84,4.214-16.959,9.075c-68.475,18.009-200.756,9.631-162.674-8.79  C83.313,206.851,109.499,208.617,109.499,208.617"
   id="path11" />
<path
   style="fill: rgb(83, 130, 161);"
   d="M230.462,276.231c69.608-36.171,37.424-70.931,14.96-66.248c-5.506,1.146-7.961,2.139-7.961,2.139  s2.044-3.202,5.948-4.588c44.441-15.624,78.619,46.081-14.346,70.52C229.063,278.055,230.14,277.092,230.462,276.231"
   id="path13" />
<path
   style="fill: rgb(231, 111, 0);"
   d="M188.495,4.399c0,0,38.55,38.563-36.563,97.862c-60.233,47.568-13.735,74.69-0.025,105.678  c-35.159-31.722-60.961-59.647-43.651-85.637C133.663,84.151,204.049,65.654,188.495,4.399"
   id="path15" />
<path
   style="fill: rgb(83, 130, 161);"
   d="M116.339,374.246c66.815,4.277,169.417-2.373,171.847-33.988c0,0-4.671,11.985-55.219,21.503  c-57.028,10.732-127.364,9.479-169.081,2.601C63.887,364.361,72.426,371.43,116.339,374.246"
   id="path17" />
<path
   style="fill:#ffffff"
   d="m 240.95558,270.87223 c 24.04747,-14.88368 35.90332,-31.94015 31.49211,-45.30624 -3.56814,-10.81158 -13.83596,-17.08557 -26.1014,-15.94886 l -6.88131,0.63773 4.19471,-1.92118 c 6.52077,-2.98653 22.09939,-2.65736 28.16442,0.5951 17.0325,9.13395 19.95549,26.23246 7.1549,41.85389 -5.36978,6.55311 -18.09053,14.99246 -29.41554,19.5152 -14.39905,5.75038 -17.2815,5.94271 -8.60789,0.57436 z"
   id="path2904" /><path
   style="fill:#ffffff"
   d=""
   id="path2906" /><path
   style="fill:#ffffff"
   d="m 96.845143,355.94598 c -30.289997,-2.38549 -62.063536,-6.31186 -71.308984,-8.81192 -10.11983,-2.7365 -12.498884,-8.44026 -5.687443,-13.6356 10.668302,-8.13711 41.62363,-17.3418 47.271045,-14.05623 1.839143,1.06998 1.598361,1.26218 -1.620075,1.29321 -4.866409,0.0469 -20.458919,5.31466 -24.36611,8.2318 -12.978703,9.69 18.667471,17.28097 79.082044,18.96943 52.1913,1.45863 118.506,-4.53015 137.70963,-12.43635 5.66465,-2.33215 9.70416,-6.16252 9.70416,-9.20174 0,-2.2429 0.15869,-2.28619 1.92091,-0.52397 8.04575,8.04575 -20.48504,20.13223 -61.65551,26.1191 -24.705,3.59252 -45.72031,4.8477 -77.49206,4.62838 -15.82001,-0.10921 -30.920938,-0.36846 -33.557607,-0.57611 z"
   id="path2908" /><path
   style="fill:#ffffff"
   d="m 114.06667,373.50098 c -7.66651,-0.5688 -19.234138,-1.93616 -25.705837,-3.03858 -13.414575,-2.2851 -20.229952,-4.53128 -10.691468,-3.52363 42.133975,4.45102 93.212115,3.9544 133.473205,-1.29772 28.6828,-3.74173 54.64777,-10.3474 67.73718,-17.23283 3.69982,-1.94622 6.72695,-3.13752 6.72695,-2.64734 0,1.72728 -9.0467,9.54197 -13.79069,11.91264 -11.94497,5.96913 -32.32809,10.84181 -58.71772,14.03673 -18.44378,2.23294 -78.44716,3.31794 -99.03162,1.79073 l 0,0 z"
   id="path2910" /><path
   style="fill:#ffffff"
   d="m 135.79594,321.07593 c -19.69395,-1.07796 -40.221658,-6.51084 -46.59484,-12.33184 -5.606695,-5.12093 -4.597353,-8.34651 4.069958,-13.00649 l 4.772571,-2.56598 0.602023,3.26148 c 0.785439,4.25514 5.531118,5.64392 25.866608,7.56963 17.13899,1.62302 33.78597,0.91131 52.59053,-2.2484 l 11.94394,-2.00693 9.52006,4.68129 9.52006,4.68128 -5.88049,2.2322 c -17.76665,6.74409 -45.84443,10.85945 -66.41042,9.73376 z"
   id="path2912" /><path
   style="fill:#ffffff"
   d="m 110.62773,278.70512 c -20.713737,-2.32118 -35.95458,-8.35694 -35.95458,-14.23892 0,-2.40045 3.965191,-6.2122 9.228751,-8.87161 5.00375,-2.52815 5.330694,-2.46364 4.489989,0.886 -1.714063,6.82937 5.266021,8.90332 34.49818,10.2502 23.99071,1.10538 41.40675,0.12851 63.40015,-3.55614 l 13.94044,-2.3355 6.06437,3.89929 c 3.33538,2.14462 6.09577,4.21548 6.13418,4.60193 0.17172,1.72766 -30.23969,7.60809 -48.89545,9.45456 -14.31224,1.41656 -39.85037,1.37321 -52.90603,-0.0898 z"
   id="path2914" /><path
   style="fill:#ffffff"
   d="m 78.867852,238.73391 c -20.573518,-2.28398 -34.156853,-6.33687 -34.156853,-10.19147 0,-5.00767 31.54957,-16.37805 51.534901,-18.57305 l 6.59167,-0.72396 -10.187129,3.42741 c -27.595928,9.28452 -29.282231,15.09555 -5.309433,18.29639 22.532852,3.00858 88.052362,0.18167 125.140532,-5.39932 6.25246,-0.94086 11.51353,-1.56525 11.69124,-1.38753 0.17773,0.17773 -2.32929,1.76677 -5.57116,3.53121 -6.87799,3.74348 -22.4197,7.20896 -44.05229,9.82276 -21.30991,2.57481 -76.997179,3.2718 -95.681478,1.19756 z"
   id="path2916" /><path
   style="fill:#ff0000"
   d="m 172.35825,211.69323 c 3.1048,-6.00402 4.13043,-14.16983 2.4719,-19.68071 -0.81371,-2.70375 -4.76282,-9.34415 -8.77579,-14.75644 -9.4369,-12.72755 -12.74459,-21.06832 -12.71498,-32.0624 0.0284,-10.53663 3.07715,-17.31544 12.23756,-27.20978 7.89368,-8.52612 17.93345,-15.84077 30.11101,-21.93791 10.25376,-5.13392 30.00567,-12.962617 30.77183,-12.196456 0.2829,0.282901 -3.68634,3.111801 -8.82053,6.286444 -30.80204,19.045922 -44.69024,33.828402 -44.69024,47.567912 0,7.44425 1.06719,9.88023 11.00627,25.123 6.85717,10.51631 8.64673,14.23287 9.09386,18.88625 0.80441,8.37167 -3.69235,17.52128 -13.03478,26.52203 -8.1421,7.84432 -10.46746,8.89462 -7.65611,3.45806 l 0,0 z"
   id="path2918" /><path
   style="fill:#ff0000"
   d="m 133.82754,189.83728 c -13.98131,-14.47205 -20.05755,-22.28592 -25.35293,-32.60315 -3.7335,-7.27414 -4.34167,-9.60815 -4.3865,-16.8344 -0.0406,-6.54988 0.59238,-9.70334 2.88697,-14.38183 3.74587,-7.63753 16.78423,-20.64548 36.61102,-36.525634 38.25487,-30.640016 48.42973,-46.119548 47.09021,-71.640697 l -0.52302,-9.9649208 2.18695,3.4540498 c 1.20282,1.899727 3.05511,6.972093 4.1162,11.271924 1.63239,6.614894 1.70912,9.123018 0.49862,16.299653 -2.93973,17.428665 -12.74329,32.513978 -33.63121,51.750285 -27.15989,25.01235 -33.30599,31.63862 -37.43823,40.36308 -3.36005,7.09414 -3.87227,9.44389 -3.87227,17.76349 0,8.29601 0.51554,10.6762 3.82616,17.66495 2.10438,4.44238 7.6324,13.6688 12.28448,20.50316 4.65208,6.83435 8.45832,12.77259 8.45832,13.19607 0,2.20114 -3.02822,-0.24809 -12.75477,-10.31603 z"
   id="path2920" /></svg>